<svg width="135" height="27" viewBox="0 0 135 27" fill="none" xmlns="http://www.w3.org/2000/svg">
<path d="M13.2856 18.3721V21H1.6958V18.3721H13.2856ZM13.1172 6.52393L3.18945 21H0.819824V19.0684L10.8262 4.64844H13.1172V6.52393ZM11.9604 4.64844V7.2876H0.831055V4.64844H11.9604ZM18.6426 8.84863V21H15.397V8.84863H18.6426ZM15.1948 5.68164C15.1948 5.20996 15.3595 4.82064 15.689 4.51367C16.0184 4.20671 16.4601 4.05322 17.0142 4.05322C17.5607 4.05322 17.9987 4.20671 18.3281 4.51367C18.665 4.82064 18.8335 5.20996 18.8335 5.68164C18.8335 6.15332 18.665 6.54264 18.3281 6.84961C17.9987 7.15658 17.5607 7.31006 17.0142 7.31006C16.4601 7.31006 16.0184 7.15658 15.689 6.84961C15.3595 6.54264 15.1948 6.15332 15.1948 5.68164ZM24.5498 11.3643V21H21.3042V8.84863H24.3477L24.5498 11.3643ZM24.1006 14.4976H23.2021C23.2021 13.6515 23.3032 12.8729 23.5054 12.1616C23.715 11.4429 24.0182 10.8215 24.415 10.2974C24.8193 9.76579 25.3172 9.354 25.9087 9.06201C26.5002 8.77002 27.1852 8.62402 27.9639 8.62402C28.5029 8.62402 28.9971 8.70638 29.4463 8.87109C29.8955 9.02832 30.2811 9.27913 30.603 9.62354C30.9325 9.96045 31.187 10.4022 31.3667 10.9487C31.5464 11.4878 31.6362 12.1354 31.6362 12.8916V21H28.4019V13.251C28.4019 12.6969 28.327 12.2702 28.1772 11.9707C28.0275 11.6712 27.8141 11.4616 27.5371 11.3418C27.2676 11.222 26.9419 11.1621 26.5601 11.1621C26.1408 11.1621 25.7739 11.2482 25.4595 11.4204C25.1525 11.5926 24.8979 11.8322 24.6958 12.1392C24.4937 12.4386 24.3439 12.7905 24.2466 13.1948C24.1493 13.5991 24.1006 14.0334 24.1006 14.4976ZM31.333 14.127L30.1763 14.2729C30.1763 13.4793 30.2736 12.7419 30.4683 12.0605C30.6704 11.3792 30.9661 10.7803 31.3555 10.2637C31.7523 9.74707 32.2427 9.34652 32.8267 9.06201C33.4106 8.77002 34.0845 8.62402 34.8481 8.62402C35.4321 8.62402 35.9637 8.71012 36.4429 8.88232C36.922 9.04704 37.3301 9.31283 37.667 9.67969C38.0114 10.0391 38.2734 10.5107 38.4531 11.0947C38.6403 11.6787 38.7339 12.3937 38.7339 13.2397V21H35.4883V13.2397C35.4883 12.6782 35.4134 12.2515 35.2637 11.9595C35.1214 11.66 34.9118 11.4541 34.6348 11.3418C34.3652 11.222 34.0433 11.1621 33.6689 11.1621C33.2796 11.1621 32.939 11.2407 32.647 11.3979C32.355 11.5477 32.1117 11.7573 31.917 12.0269C31.7223 12.2964 31.5763 12.6108 31.479 12.9702C31.3817 13.3221 31.333 13.7077 31.333 14.127ZM41.2383 3.75H44.4727V18.2148L44.147 21H41.2383V3.75ZM52.1655 14.8008V15.0366C52.1655 15.9425 52.0682 16.7736 51.8735 17.5298C51.6864 18.286 51.3944 18.9411 50.9976 19.4951C50.6007 20.0417 50.1066 20.4684 49.5151 20.7754C48.9312 21.0749 48.2424 21.2246 47.4487 21.2246C46.7075 21.2246 46.0636 21.0749 45.5171 20.7754C44.978 20.4759 44.5251 20.0529 44.1582 19.5063C43.7913 18.9598 43.4956 18.3197 43.271 17.5859C43.0464 16.8522 42.8779 16.0511 42.7656 15.1826V14.666C42.8779 13.7975 43.0464 12.9964 43.271 12.2627C43.4956 11.529 43.7913 10.8888 44.1582 10.3423C44.5251 9.79574 44.978 9.37272 45.5171 9.07324C46.0562 8.77376 46.6925 8.62402 47.4263 8.62402C48.2274 8.62402 48.9237 8.77751 49.5151 9.08447C50.1141 9.38395 50.6082 9.81071 50.9976 10.3647C51.3944 10.9113 51.6864 11.5627 51.8735 12.3188C52.0682 13.0675 52.1655 13.8949 52.1655 14.8008ZM48.9312 15.0366V14.8008C48.9312 14.3066 48.8937 13.8424 48.8188 13.4082C48.7515 12.9665 48.6317 12.5809 48.4595 12.2515C48.2873 11.9146 48.0514 11.6488 47.752 11.4541C47.46 11.2594 47.0819 11.1621 46.6177 11.1621C46.1759 11.1621 45.8016 11.237 45.4946 11.3867C45.1877 11.5365 44.9331 11.7461 44.731 12.0156C44.5363 12.2852 44.3903 12.6071 44.293 12.9814C44.1956 13.3483 44.1357 13.7526 44.1133 14.1943V15.6655C44.1357 16.257 44.2331 16.7811 44.4053 17.2378C44.585 17.687 44.8545 18.0426 45.2139 18.3047C45.5807 18.5592 46.0562 18.6865 46.6401 18.6865C47.0968 18.6865 47.4749 18.5967 47.7744 18.417C48.0739 18.2373 48.306 17.9827 48.4707 17.6533C48.6429 17.3239 48.7627 16.9383 48.8301 16.4966C48.8975 16.0474 48.9312 15.5607 48.9312 15.0366ZM60.7344 18.2598V12.8467C60.7344 12.4574 60.6707 12.1242 60.5435 11.8472C60.4162 11.5627 60.2178 11.3418 59.9482 11.1846C59.6862 11.0273 59.3455 10.9487 58.9263 10.9487C58.5669 10.9487 58.2562 11.0124 57.9941 11.1396C57.7321 11.2594 57.5299 11.4354 57.3877 11.6675C57.2454 11.8921 57.1743 12.1579 57.1743 12.4648H53.9399C53.9399 11.9482 54.0597 11.4578 54.2993 10.9937C54.5389 10.5295 54.887 10.1214 55.3438 9.76953C55.8005 9.41016 56.3433 9.12939 56.9722 8.92725C57.6086 8.7251 58.3198 8.62402 59.106 8.62402C60.0493 8.62402 60.8879 8.78125 61.6216 9.0957C62.3553 9.41016 62.9318 9.88184 63.3511 10.5107C63.7778 11.1396 63.9912 11.9258 63.9912 12.8691V18.0688C63.9912 18.7352 64.0324 19.2817 64.1147 19.7085C64.1971 20.1278 64.3169 20.4946 64.4741 20.8091V21H61.2061C61.0488 20.6706 60.929 20.2588 60.8467 19.7646C60.7718 19.263 60.7344 18.7614 60.7344 18.2598ZM61.1611 13.5991L61.1836 15.4297H59.3755C58.9487 15.4297 58.5781 15.4784 58.2637 15.5757C57.9492 15.673 57.6909 15.8115 57.4888 15.9912C57.2866 16.1634 57.1369 16.3656 57.0396 16.5977C56.9497 16.8298 56.9048 17.0843 56.9048 17.3613C56.9048 17.6383 56.9684 17.8892 57.0957 18.1138C57.223 18.3309 57.4064 18.5031 57.646 18.6304C57.8856 18.7502 58.1663 18.8101 58.4883 18.8101C58.9749 18.8101 59.3979 18.7127 59.7573 18.5181C60.1167 18.3234 60.3937 18.0838 60.5884 17.7993C60.7905 17.5148 60.8953 17.2453 60.9028 16.9907L61.7563 18.3608C61.6366 18.6678 61.4718 18.986 61.2622 19.3154C61.0601 19.6449 60.8018 19.9556 60.4873 20.2476C60.1729 20.5321 59.7948 20.7679 59.353 20.9551C58.9113 21.1348 58.3872 21.2246 57.7808 21.2246C57.0096 21.2246 56.3096 21.0711 55.6807 20.7642C55.0592 20.4497 54.5651 20.0192 54.1982 19.4727C53.8389 18.9186 53.6592 18.2897 53.6592 17.5859C53.6592 16.9495 53.779 16.3843 54.0186 15.8901C54.2581 15.396 54.61 14.9805 55.0742 14.6436C55.5459 14.2992 56.1336 14.0409 56.8374 13.8687C57.5412 13.689 58.3573 13.5991 59.2856 13.5991H61.1611Z" fill="black"/>
<path d="M68.9985 4.64844H71.8511L76.0513 16.6538L80.2515 4.64844H83.104L77.1968 21H74.9058L68.9985 4.64844ZM67.46 4.64844H70.3013L70.8179 16.3506V21H67.46V4.64844ZM81.8013 4.64844H84.6538V21H81.2847V16.3506L81.8013 4.64844ZM86.8887 15.0479V14.812C86.8887 13.9211 87.016 13.1012 87.2705 12.3525C87.5251 11.5964 87.8957 10.9412 88.3823 10.3872C88.869 9.83317 89.4679 9.40267 90.1792 9.0957C90.8905 8.78125 91.7065 8.62402 92.6274 8.62402C93.5483 8.62402 94.3682 8.78125 95.0869 9.0957C95.8057 9.40267 96.4084 9.83317 96.895 10.3872C97.3892 10.9412 97.7635 11.5964 98.0181 12.3525C98.2726 13.1012 98.3999 13.9211 98.3999 14.812V15.0479C98.3999 15.9313 98.2726 16.7511 98.0181 17.5073C97.7635 18.256 97.3892 18.9111 96.895 19.4727C96.4084 20.0267 95.8094 20.4572 95.0981 20.7642C94.3869 21.0711 93.5708 21.2246 92.6499 21.2246C91.729 21.2246 90.9092 21.0711 90.1904 20.7642C89.4792 20.4572 88.8765 20.0267 88.3823 19.4727C87.8957 18.9111 87.5251 18.256 87.2705 17.5073C87.016 16.7511 86.8887 15.9313 86.8887 15.0479ZM90.123 14.812V15.0479C90.123 15.557 90.168 16.0324 90.2578 16.4741C90.3477 16.9159 90.4899 17.3052 90.6846 17.6421C90.8867 17.9715 91.1488 18.2298 91.4707 18.417C91.7926 18.6042 92.1857 18.6978 92.6499 18.6978C93.0991 18.6978 93.4847 18.6042 93.8066 18.417C94.1286 18.2298 94.3869 17.9715 94.5815 17.6421C94.7762 17.3052 94.9185 16.9159 95.0083 16.4741C95.1056 16.0324 95.1543 15.557 95.1543 15.0479V14.812C95.1543 14.3179 95.1056 13.8537 95.0083 13.4194C94.9185 12.9777 94.7725 12.5884 94.5703 12.2515C94.3757 11.9071 94.1174 11.6375 93.7954 11.4429C93.4735 11.2482 93.0841 11.1509 92.6274 11.1509C92.1707 11.1509 91.7814 11.2482 91.4595 11.4429C91.145 11.6375 90.8867 11.9071 90.6846 12.2515C90.4899 12.5884 90.3477 12.9777 90.2578 13.4194C90.168 13.8537 90.123 14.3179 90.123 14.812ZM104.341 18.6416L107.036 8.84863H110.417L106.317 21H104.273L104.341 18.6416ZM102.488 8.84863L105.194 18.6528L105.25 21H103.195L99.0962 8.84863H102.488ZM117.301 21.2246C116.357 21.2246 115.511 21.0749 114.763 20.7754C114.014 20.4684 113.378 20.0454 112.854 19.5063C112.337 18.9673 111.94 18.3421 111.663 17.6309C111.386 16.9121 111.248 16.1484 111.248 15.3398V14.8906C111.248 13.9697 111.379 13.1274 111.641 12.3638C111.903 11.6001 112.277 10.9375 112.764 10.376C113.258 9.81445 113.857 9.38395 114.561 9.08447C115.264 8.77751 116.058 8.62402 116.941 8.62402C117.802 8.62402 118.566 8.76628 119.232 9.05078C119.899 9.33529 120.457 9.73958 120.906 10.2637C121.362 10.7878 121.707 11.4167 121.939 12.1504C122.171 12.8766 122.287 13.6852 122.287 14.5762V15.9238H112.629V13.7676H119.109V13.5205C119.109 13.0713 119.027 12.6707 118.862 12.3188C118.705 11.9595 118.465 11.675 118.143 11.4653C117.821 11.2557 117.409 11.1509 116.908 11.1509C116.481 11.1509 116.114 11.2445 115.807 11.4316C115.5 11.6188 115.249 11.8809 115.055 12.2178C114.868 12.5547 114.725 12.9515 114.628 13.4082C114.538 13.8574 114.493 14.3516 114.493 14.8906V15.3398C114.493 15.8265 114.561 16.2757 114.695 16.6875C114.838 17.0993 115.036 17.4549 115.291 17.7544C115.553 18.0539 115.867 18.286 116.234 18.4507C116.608 18.6154 117.031 18.6978 117.503 18.6978C118.087 18.6978 118.63 18.5854 119.131 18.3608C119.64 18.1287 120.078 17.7806 120.445 17.3164L122.018 19.0234C121.763 19.3903 121.415 19.7422 120.973 20.0791C120.539 20.416 120.015 20.693 119.401 20.9102C118.787 21.1198 118.087 21.2246 117.301 21.2246ZM130.699 17.6421C130.699 17.41 130.631 17.2004 130.497 17.0132C130.362 16.826 130.111 16.6538 129.744 16.4966C129.385 16.3319 128.864 16.1821 128.183 16.0474C127.569 15.9126 126.996 15.7441 126.465 15.542C125.941 15.3324 125.484 15.0815 125.095 14.7896C124.713 14.4976 124.413 14.1532 124.196 13.7563C123.979 13.3521 123.871 12.8916 123.871 12.375C123.871 11.8659 123.979 11.3867 124.196 10.9375C124.421 10.4883 124.739 10.0915 125.151 9.74707C125.57 9.39518 126.079 9.12191 126.678 8.92725C127.285 8.7251 127.966 8.62402 128.722 8.62402C129.778 8.62402 130.684 8.79248 131.44 9.12939C132.204 9.46631 132.788 9.9305 133.192 10.522C133.604 11.106 133.81 11.7723 133.81 12.521H130.575C130.575 12.2065 130.508 11.9258 130.373 11.6787C130.246 11.4242 130.044 11.2257 129.767 11.0835C129.497 10.9338 129.145 10.8589 128.711 10.8589C128.352 10.8589 128.041 10.9225 127.779 11.0498C127.517 11.1696 127.315 11.3343 127.172 11.5439C127.038 11.7461 126.97 11.9707 126.97 12.2178C126.97 12.4049 127.008 12.5734 127.083 12.7231C127.165 12.8654 127.296 12.9964 127.476 13.1162C127.655 13.236 127.887 13.3483 128.172 13.4531C128.464 13.5505 128.823 13.6403 129.25 13.7227C130.126 13.9023 130.908 14.1382 131.597 14.4302C132.286 14.7147 132.833 15.104 133.237 15.5981C133.641 16.0848 133.843 16.7249 133.843 17.5186C133.843 18.0576 133.723 18.5518 133.484 19.001C133.244 19.4502 132.9 19.8433 132.451 20.1802C132.001 20.5096 131.462 20.7679 130.833 20.9551C130.212 21.1348 129.512 21.2246 128.733 21.2246C127.603 21.2246 126.645 21.0225 125.858 20.6182C125.08 20.2139 124.488 19.701 124.084 19.0796C123.687 18.4507 123.489 17.8068 123.489 17.1479H126.555C126.57 17.5897 126.682 17.9453 126.892 18.2148C127.109 18.4844 127.382 18.679 127.711 18.7988C128.048 18.9186 128.411 18.9785 128.801 18.9785C129.22 18.9785 129.568 18.9224 129.845 18.8101C130.122 18.6903 130.332 18.533 130.474 18.3384C130.624 18.1362 130.699 17.9041 130.699 17.6421Z" fill="#008236"/>
</svg>
